<?xml version="1.0" encoding="utf-8"?>
<!-- Generator: Adobe Illustrator 24.0.1, SVG Export Plug-In . SVG Version: 6.00 Build 0)  -->
<svg version="1.1" id="Layer_1" xmlns="http://www.w3.org/2000/svg" xmlns:xlink="http://www.w3.org/1999/xlink" x="0px" y="0px"
	 viewBox="0 0 240 23" style="enable-background:new 0 0 240 23;" xml:space="preserve">
<style type="text/css">
	.st0{fill:#6D6E71;}
	.st1{fill:#0973B9;}
</style>
<g>
	<polygon class="st0" points="124.2,1.9 126.5,1.9 126.5,19.2 124.2,19.2 124.2,2.4 	"/>
	<g>
		<path class="st0" d="M148.1,6.4c-0.4-1.4-1-2.6-2.9-2.6c-1.1,0-1.8,0.9-1.8,2c0,3.4,7,3.6,7,8.7c0,2.6-1.9,4.6-4.5,4.6
			c-3,0-4.5-1.6-5.3-4.4l2.1-0.4c0.5,1.5,1.3,2.9,3,2.9c1.2,0,2.4-1.1,2.4-2.5c0-3.8-7-3.9-7-8.8c0-2.2,1.8-4,4.3-4
			c2.5,0,4.1,1.5,4.6,4L148.1,6.4z"/>
		<path class="st0" d="M159.8,1.9h2.3v2.3c0,0,1.7-2.3,4.3-2.3v2.2c-1.7,0-4.3,2.1-4.3,5.3v9.7h-2.3V2.2V1.9z"/>
		<path class="st0" d="M79.1,1.9h2.3v2.3c0,0,1.7-2.3,4.3-2.3v2.2c-1.7,0-4.3,2.1-4.3,5.3v9.7h-2.3V2.2V1.9z"/>
		<path class="st0" d="M71.2,1.9h2.3v2.3c0,0,1.7-2.3,4.3-2.3v2.2c-1.7,0-4.3,2.1-4.3,5.3v9.7h-2.3V2.2V1.9z"/>
		<path class="st0" d="M201.6,10.9v0.9c0,4,0.9,5.4,3.1,5.4c1.8,0,2.5-1.6,2.8-3.1l2.2,0.3c-0.3,2.5-2.2,4.8-5.3,4.8
			c-3.5,0-5.1-2.6-5.1-8.6c0-6,1.6-8.6,5.1-8.6c3.5,0,5.1,3.1,5.1,7.9v1.1H201.6z M207.2,9c-0.1-3.6-0.7-5.2-2.8-5.2
			c-1.7,0-2.7,1.2-2.8,5.2H207.2z"/>
		<path class="st0" d="M151.8-0.1l2.3,0l0,2l3.8,0l0,1.9h-3.8v11.9c0,1,0.5,1.7,1.7,1.7c0.4,0,1-0.2,1.4-0.3v1.7
			c-0.6,0.2-1.2,0.3-2.2,0.3c-2.2,0-3.2-1-3.2-3.6V-0.1z"/>
		<path class="st0" d="M223.5-0.1l2.3,0l0,2l3.8,0l0,1.9h-3.8v11.9c0,1,0.5,1.7,1.6,1.7c0.5,0,1-0.2,1.4-0.3v1.7
			c-0.6,0.2-1.2,0.3-2.2,0.3c-2.2,0-3.2-1-3.2-3.6V-0.1z"/>
		<path class="st0" d="M237.5,6.4c-0.4-1.4-1-2.6-2.9-2.6c-1.1,0-1.9,0.9-1.9,2c0,3.4,7,3.6,7,8.7c0,2.6-1.9,4.6-4.5,4.6
			c-3,0-4.5-1.6-5.3-4.4l2.1-0.4c0.5,1.5,1.3,2.9,3,2.9c1.2,0,2.4-1.1,2.4-2.5c0-3.8-7-3.9-7-8.8c0-2.2,1.8-4,4.3-4
			c2.6,0,4.1,1.5,4.6,4L237.5,6.4z"/>
		<path class="st0" d="M169.9,1.9v11.7c0,2,0.6,3.8,3,3.8c2.4,0,3-1.8,3-3.8V1.9h2.2v11.8c0,3.2-1.5,5.6-5.1,5.6
			c-3.6,0-5.1-2.3-5.1-5.6V1.9H169.9z"/>
		<path class="st0" d="M136.9,19.1V7.5c0-2-0.6-3.8-3-3.8c-2.4,0-2.9,1.8-2.9,3.8v11.5h-2.2V7.5c0-3.2,1.5-5.6,5.1-5.6
			c3.6,0,5.1,2.3,5.1,5.6v11.6H136.9z"/>
		<path class="st0" d="M219.5,19.1V7.5c0-2-0.6-3.8-2.9-3.8c-2.4,0-2.9,1.8-2.9,3.8v11.5h-2.2V7.5c0-3.2,1.5-5.6,5.1-5.6
			c3.6,0,5.1,2.3,5.1,5.6v11.6H219.5z"/>
		<path class="st0" d="M192.8,1.9c-1.9,0-3.2,0.6-4,1.7c-0.8-1.1-2.1-1.7-4-1.7c-3.6,0-5.1,2.3-5.1,5.6v11.6h2.2V7.5
			c0-2,0.6-3.8,2.9-3.8c2.4,0,3,1.8,3,3.8v11.5h0h2.2h0V7.5c0-2,0.6-3.8,2.9-3.8c2.4,0,3,1.8,3,3.8v11.5h2.2V7.5
			C198,4.2,196.5,1.9,192.8,1.9"/>
		<path class="st0" d="M59.6,6.7c0.4-2.6,2-4.8,4.9-4.8c3.1,0,4.8,1.8,4.8,4.7v8.5c-0.1,1.7-2.7,4-5.8,4c-2.6,0-4.3-1.7-4.3-4.3
			c0-4.1,4.5-6.1,7.8-6.9V6.8c0-1.8-0.9-3-2.4-3c-1.8,0-2.6,1.7-2.9,3.2L59.6,6.7z M66.9,9.9c-2.1,0.6-5.5,2.2-5.5,4.8
			c0,1.6,0.7,2.5,2.4,2.5c1.2,0,2.3-0.9,3.2-1.7V9.9z"/>
		<path class="st0" d="M91.2,1.9c3.5,0,5.1,2.6,5.1,8.6c0,6-1.6,8.6-5.1,8.6c-3.5,0-5.1-2.6-5.1-8.6C86.1,4.5,87.7,1.9,91.2,1.9
			 M91.2,17.2c1.9,0,2.8-1.2,2.8-6.7c0-5.5-0.8-6.7-2.8-6.7c-1.9,0-2.8,1.2-2.8,6.7C88.4,16,89.2,17.2,91.2,17.2"/>
		<path class="st0" d="M98.9,1.9l2.7,10.1h0.1l3-10.1h2.4l-4.5,14.3c-1.1,4.3-2.5,6.6-5.3,6.6H96l0.2-2.3h0.7c1.8,0,2.7-1.3,3.4-4
			L96.5,1.9H98.9z"/>
		<path class="st0" d="M112,1.9c3.5,0,5.1,2.6,5.1,8.6c0,6-1.6,8.6-5.1,8.6c-3.5,0-5.1-2.6-5.1-8.6C107,4.5,108.6,1.9,112,1.9
			 M112,17.2c1.9,0,2.8-1.2,2.8-6.7c0-5.5-0.8-6.7-2.8-6.7c-1.9,0-2.8,1.2-2.8,6.7C109.3,16,110.1,17.2,112,17.2"/>
		<path class="st1" d="M-0.2,16.6V1h6.6h4.9C24,0.9,36,6.1,24.1,8.8c-7,1.6-15.3,4.6-17.7,7.8H-0.2z"/>
		<path class="st1" d="M26.4,1v0.2C33,1.7,39.6,3.3,42.2,5.6c5.2,4.7-21.3,5-19,9.3c2.5,4.4,18.8,5.9,27.4,6h4.2V1H26.4z"/>
	</g>
</g>
</svg>
